<svg width="1000" height="1000" viewBox="0 0 1000 1000" fill="none" xmlns="http://www.w3.org/2000/svg">
<rect width="1000" height="1000" fill="white"/>
<path d="M259.258 787.254C251.489 795.034 239.925 797.626 229.578 793.906C218.313 789.857 210.8 779.173 210.8 767.202V232.817C210.8 220.835 218.32 210.141 229.596 206.087C239.935 202.371 251.49 204.95 259.268 212.71L498.181 451.097C499.352 452.265 501.248 452.265 502.419 451.097L741.332 212.71C749.11 204.95 760.665 202.371 771.004 206.087C782.28 210.141 789.8 220.835 789.8 232.817V767.164C789.8 779.158 782.273 789.862 770.987 793.919C760.655 797.633 749.109 795.067 741.323 787.326L501.507 548.899C500.334 547.733 498.438 547.737 497.269 548.907L259.258 787.254ZM719.621 673.705C721.505 675.612 724.754 674.277 724.754 671.596V328.351C724.754 325.677 721.521 324.339 719.631 326.231L549.129 496.974C547.964 498.141 547.959 500.029 549.118 501.202L719.621 673.705ZM275.846 670.705C275.846 673.383 279.087 674.719 280.974 672.82L451.46 501.213C452.629 500.037 452.621 498.136 451.444 496.968L280.958 328.002C279.064 326.125 275.846 327.467 275.846 330.133V670.705Z" fill="black"/>
</svg>
